With: Gina Gershon, Tom Barnett and Rachel Blanchard

Trots op hun zuidelijke afkomst gedragen Pat en Tom Allanson zich als Rhett en Scarlett, een symbolische verbeelding van hun wens om te worden opgenomen in de elite van South Carolina. Maar hun droom spat uit elkaar als Tom wordt veroordeeld voor de gruwelijke moord op z’n ouders. Als vervolgens Pats broer omkomt bij een verdachte zelfmoordpoging en Toms grootouders worden vergiftigd, komt het gedrag van het stel in een huiveringwekkend daglicht te staan.

Pat (Gina Gershon) is a sensual and very self-assured southern belle, with a vague and undefined past...

------------------ Dutch Friends ------------------
You can find my Friends at: http://www.Film-Test.nl 
------ They got my dutchs subs ---- and more ------

General:

Complete name                    : Everything She Ever Wanted\Everything She Ever Wanted Part01.avi
Format                           : AVI
Format/Info                      : Audio Video Interleave
File size                        : 1.21 GiB
Duration                         : 1h 24mn
Overall bit rate                 : 2 036 Kbps

Video:

Format                           : MPEG-4 Visual
Format profile                   : Simple@L3
Format settings, BVOP            : No
Format settings, QPel            : No
Format settings, GMC             : No warppoints
Format settings, Matrix          : Default (H.263)
Codec ID                         : XVID
Codec ID/Hint                    : XviD
Duration                         : 1h 24mn
Bit rate                         : 1 577 Kbps
Width                            : 704 pixels
Height                           : 396 pixels
Display aspect ratio             : 16:9
Frame rate                       : 25.000 fps
Color space                      : YUV
Chroma subsampling               : 4:2:0
Bit depth                        : 8 bits
Scan type                        : Progressive
Bits/(Pixel*Frame)               : 0.226
Stream size                      : 957 MiB (77%)
Writing library                  : XviD 1.1.2 (UTC 2006-11-01)

Audio:

Format                           : AC-3
Format/Info                      : Audio Coding 3
Mode extension                   : CM (complete main)
Codec ID                         : 2000
Duration                         : 1h 24mn
Bit rate mode                    : Constant
Bit rate                         : 448 Kbps
Channel(s)                       : 6 channels
Channel positions                : Front: L C R, Side: L R, LFE
Sampling rate                    : 48.0 KHz
Bit depth                        : 16 bits
Stream size                      : 272 MiB (22%)
Alignment                        : Aligned on interleaves
Interleave, duration             : 32 ms (0.80 video frame)
Interleave, preload duration     : 928 ms

